<svg xmlns="http://www.w3.org/2000/svg" width="108" height="34" viewBox="0 0 108 34">
    <g fill="#005FAF" fill-rule="nonzero">
        <path stroke="#005FAF" stroke-width=".5" d="M58.046 16.2c6.752-3.065 7.75-13.068-1.854-13.068H45.069L40.96 11.2h1.934l-4.916 19.278h12.895c9.408.08 13.64-11.007 7.174-14.277zm-7.174 7.26H47.65l1.208-4.356h3.063c3.627.726 1.37 4.517-1.048 4.356zm1.935-9.277h-2.74l.805-3.791h3.063c2.96.726.403 3.953-1.128 3.791z"/>
        <path stroke="#005FAF" stroke-width=".5" d="M84.449 13.434l4.222-7.46-5.713-2.983-.746.92C79.13 2.28 62.99 4.535 61.98 20.469c.604 13.367 15.57 10.963 17.038 10.114l4.116-8.516c-4.032 2.658-12.286 3.934-12.635-4.05.724-6.582 8.49-9.04 13.95-4.582zm21.07-10.302H92.54l-4.127 7.825h2.12l-9.783 19.52h9.47l1.943-4.708h5.813l.145 4.708h8.716L105.52 3.132zM94.796 19.43l3.179-7.594.144 7.594h-3.323z"/>
        <path d="M24.457 29.172l.504-.147-.553-.765.049.912zm-8.279-.13l-.097.683c.25-.024.56.192.683-.293-.01-.378-.297-.399-.586-.39zm4.017-.017c-.041-.186-.197-.323-.585-.195l.13.7c.32-.071.483-.26.455-.505zm-9.075-.572l-.155.621c.25.01.542.213.707-.155.011-.23.02-.46-.552-.466zm8.734 1.598l.114.716c.266.007.51-.153.439-.488-.068-.322-.338-.271-.553-.228z"/>
        <path d="M30.431 3.501C21.819-.89 11.533-.768 3.327 3.31c-4.232 7.455-4.366 17.886 0 27.125 9.04 4.578 19.04 4.277 27.168.191 3.82-7.844 4.45-17.282-.064-27.125zM15.885 25.763l-.51.005c-.126-1.412-.464-2.598-1.187-3.506-3.317-4.163-10.098-1.029-8.355-8.104.906-3.617 11.239-5.75 10.052 11.605zm-10.04-6.988c.724 1.475 5.262 1.717 6.837 2.846 2.499 1.792 2.14 4.148 2.14 4.148h-.59c-1.16-3.559-4.415-.741-7.023-1.7-1.638-.582-2.826-3.109-1.364-5.294zm8.267 11.602l.244-1.938.44.033-.196 2.132c-.197.94-1.596.814-1.772-.081l.227-2.214.52.082-.227 1.855c.029.614.644.578.764.13zm-2.336.529l-.5-.121c.058-.414.549-1.257-.421-1.257l-.27 1.101-.552-.103.586-2.643c1.435.156 1.56.555 1.588.984-.056.333-.145.565-.431.622.335.304.004.942 0 1.417zm-3.18-2.96c-.137.182-.414.822-.454 1.332-.042.54.477.427.606.364.104-.05.182-.485.182-.485l-.364-.121.121-.363.818.272-.394 1.364-.333-.091.03-.212c-.407.186-1.153.046-1.24-.424-.088-.379.177-1.525.605-2.06.415-.522 1.428-.013 1.453.302.025.314-.1.667-.1.667l-.38-.072s.023-.113.056-.292c.035-.19-.458-.379-.605-.182zm7.436 2.219l-.098 1.172-.406-.016.146-2.784c1.015.021 1.597.162 1.578.88-.06.98-.854.759-1.22.748zm1.012-4.396h-.68c-.06-2.41.402-6.82-.863-10.065-.959-2.46-3.386-3.566-3.923-5.553-.852-3.145.597-6.548 5.466-6.81 4.22.433 5.517 3.694 4.797 6.73-1.238 3.036-2.476 2.6-4.017 5.624-1.259 3.242-.78 7.488-.78 10.074zm7.543 4.46l-.472.164-.147-2.8.553-.146 1.367 2.31-.374.245-.456-.65-.52.194.049.684zm-5.503-4.46h-.544c.448-6.191 8.221-4.846 8.932-6.994 1.228 2.13.787 3.925-.496 4.846-3.188 2.288-6.245-1.694-7.892 2.148zm2.884 3.126l.244 1.286c.152.297.255.242.488.212.27-.196.214-.386.163-.635l.472-.065c.122.932-.32 1.027-.651 1.09-.71.052-.849-.087-1.04-1.008-.113-.79-.306-1.623.357-1.775 1.088-.166 1.024.324 1.122.668l-.472.081c-.075-.295-.183-.412-.423-.39-.217.1-.307.262-.26.536zm-.992 1.335c.023.405-.115.675-.374.765l-1.106.228-.44-2.686c.228-.037 1.34-.445 1.61.293.134.451-.004.613-.162.814.3.096.4.33.472.586zm-2.84-13.478c2.464-6.944 8.102-5.717 9.353-2.594 1.713 6.267-3.804 4.548-7.337 7.118-1.336 1.162-2.038 2.496-2.049 4.518h-.605c-.037-4.072-.103-6.956.638-9.042z"/>
    </g>
</svg>
