<svg xmlns="http://www.w3.org/2000/svg" xmlns:xlink="http://www.w3.org/1999/xlink" width="127" height="33" viewBox="0 0 127 33">
    <defs>
        <path id="a" d="M.482.19h126.725v33.228H.482V.191z"/>
        <path id="c" d="M.558 15.402l-.033-.644L12.862.234l.443-.072.056.028.216.403-5.261 17.67-.893.605-6.865-3.466z"/>
        <path id="e" d="M.482.19h126.725v33.228H.482V.191z"/>
        <path id="g" d="M5.542 24.733L.266.835.453.386.54.346l.598.158L14.23 20.402l-.015 1.039-7.977 3.68-.696-.388z"/>
        <path id="i" d="M.482.19h126.725v33.228H.482V.191z"/>
        <path id="k" d="M.842 17.23l-.318-.614L6.166.296 6.5.067h.01l.31.181 4.893 16.405-.66.687L.842 17.23z"/>
    </defs>
    <g fill="none" fill-rule="evenodd">
        <g transform="matrix(1 0 0 -1 -.8 33.987)">
            <mask id="b" fill="#fff">
                <use xlink:href="#a"/>
            </mask>
            <g mask="url(#b)">
                <path fill="#3A3A3A" d="M67.203 3.328c.011.195.022.507.032.935v8.207l-.026.797a4.17 4.17 0 0 1-.023.344.793.793 0 0 1-.041.17.661.661 0 0 1-.402.43c-.188.08-.466.119-.827.122v.279h4.67a11.726 11.726 0 0 0 1.84-.134c.547-.088.988-.21 1.325-.364.977-.465 1.459-1.247 1.454-2.36.01-1.59-1.032-2.606-3.19-2.867l-.361-.059c.485-.017 1.142-.18 1.447-.25.303-.07.6-.182.891-.335 1.146-.577 1.71-1.5 1.698-2.777.006-1.55-.747-2.559-2.277-3.035a7.68 7.68 0 0 0-1.259-.226 15.751 15.751 0 0 0-1.655-.085h-4.583v.28c.54.007.91.09 1.074.283a.608.608 0 0 1 .15.222c.033.085.053.229.063.423zm1.44 10.9V9.02h1.822c2.119.012 3.217.896 3.228 2.665.015 1.717-1.142 2.555-3.385 2.543h-1.666zm5.415-8.623c-.012 1.215-.45 2.073-1.322 2.553-.264.135-.6.24-1.005.314-.403.073-.849.11-1.336.112h-1.753v-6.08h1.753c1.27-.005 2.198.233 2.77.731.29.24.51.564.663.971.152.408.228.875.23 1.4z"/>
                <path fill="#3A3A3A" fill-rule="nonzero" d="M82.375 2.477c-.095.188-.161.412-.19.984l-.008.17-.112-.128a4.199 4.199 0 0 0-.393-.394 5.164 5.164 0 0 0-.446-.345 3.839 3.839 0 0 0-1.065-.574 3.613 3.613 0 0 0-1.152-.162c-.745-.003-1.317.174-1.726.523a2.141 2.141 0 0 0-.539.78 2.66 2.66 0 0 0-.201 1.015c.009 1.336.826 2.198 2.499 2.58.442.103.91.187 1.401.254.494.066 1.053.12 1.678.162l.064 1.166c.001.399-.018.722-.057.968-.039.249-.103.466-.193.65-.248.485-.754.717-1.485.717-1.173.006-1.809-.554-1.875-1.668a1.65 1.65 0 0 0-.046-.377.301.301 0 0 0-.115-.162c-.116-.079-.302-.124-.57-.127-.574-.009-.79.163-.78.451.004.303.104.595.304.876.2.283.48.529.841.738.65.361 1.481.546 2.501.549 1.116-.003 1.865-.257 2.273-.742.166-.204.289-.456.369-.761.08-.305.12-.692.12-1.162l-.003-.1-.009-.456-.024-1.204-.017-1.655-.017-.801c0-.377.017-.665.043-.987.025-.313.137-.662.387-.755.26-.097.511-.135.988-.138.351.007.621.047.804.125.209.089.337.278.392.546.054.261.078.66.072 1.192v4.672c.012.635-.062 1.083-.242 1.317-.177.228-.505.327-.956.322v.248l2.483.182V8.98l.13.232c.367.657.785 1.121 1.249 1.4.464.28 1.046.418 1.746.41 1.053.015 1.787-.34 2.216-1.047.157-.237.272-.522.34-.856.068-.335.102-.763.1-1.284v-3.61c-.006-.538.016-.939.068-1.2.053-.267.18-.456.39-.542.173-.072.576-.11.92-.12.323.01.572.05.743.124.203.09.326.279.378.547.051.26.073.659.066 1.191v8.487c.007.487-.013.847-.062 1.08-.05.242-.175.41-.38.482-.177.062-.442.092-.79.093v.248l2.583.133a61.404 61.404 0 0 1-.074-1.766 59.302 59.302 0 0 1-.026-1.646V5.635l2.846 3.129c.403.447.623.823.626 1.124.02.42-.402.609-1.094.644v.247h3.698v-.251a2.778 2.778 0 0 1-.58-.124 2.824 2.824 0 0 1-.55-.262 6.02 6.02 0 0 1-.477-.317 4.295 4.295 0 0 1-.464-.42 35.511 35.511 0 0 1-.775-.826l-.939-1.015 2.459-3.881c.28-.46.539-.785.776-.97.226-.176.515-.29.863-.343v-.254h-2.25c-.06.126-.146.29-.254.49l-.357.655-.274.493-1.82 2.976-1.43-1.605-.004-.9c-.006-.532.016-.93.067-1.192.053-.268.178-.457.384-.546.18-.077.45-.118.799-.125v-.246h-7.6v.246c.514.014.868.099 1.01.287a.8.8 0 0 1 .13.25c.03.094.048.215.057.362.01.117.02.285.032.507.013.222.02.375.02.456V7.73c.003.864-.09 1.504-.284 1.911-.296.64-.832.96-1.59.963-.846.003-1.521-.401-2.021-1.2a3.867 3.867 0 0 1-.44-1.028 4.333 4.333 0 0 1-.16-1.134V4.225c-.007-.538.015-.939.067-1.2.053-.267.18-.456.389-.542.183-.076.455-.115.81-.121v-.246h-3.738a36.217 36.217 0 0 0-1.276-.023c-.328.004-.486.04-.786.062-.265.077-.377.147-.465.322m-4.407 1.92c.006-.567.144-1.029.418-1.377.276-.35.649-.53 1.109-.538a2.68 2.68 0 0 1 1.315.364c.41.236.733.55.967.942.143.25.247.57.312.96.065.387.097.868.096 1.444v.894c-.832-.072-1.427-.15-1.86-.242a4.597 4.597 0 0 1-1.156-.398c-.796-.397-1.196-1.085-1.201-2.048"/>
                <path fill="#3A3A3A" d="M4.834 7.379V4.27c-.007-.499.021-.869.085-1.11.064-.242.202-.402.414-.48.212-.078.538-.122.978-.13v-.434H1.448v.433c.414.01.72.053.92.131.199.078.327.238.386.48.059.241.085.611.078 1.11v8.17c.007.498-.019.869-.075 1.111-.058.242-.181.403-.371.483-.19.081-.482.129-.877.143v.435h4.633c1.562.006 2.705-.27 3.432-.83.727-.56 1.085-1.441 1.077-2.645.005-1.693-.652-2.801-1.97-3.325-.344-.135-.783-.24-1.316-.317a12.88 12.88 0 0 0-1.777-.117h-.754zm0 .485h.8c.962.002 1.67.23 2.124.684.247.263.434.606.561 1.032.128.425.192.91.193 1.457-.005 2.058-.903 3.088-2.694 3.091h-.984V7.864zM18.48 6.854h-5.658c.006-.605.042-1.114.106-1.524.065-.41.168-.784.31-1.124.47-1.099 1.196-1.648 2.179-1.648a2.553 2.553 0 0 1 1.513.493c.453.326.83.794 1.13 1.405l.4-.266c-.394-.787-.875-1.365-1.443-1.734-.569-.369-1.262-.551-2.08-.548-1.29.017-2.473.43-3.216 1.239-.741.809-1.12 1.917-1.134 3.324.014 1.417.38 2.538 1.097 3.364.716.825 1.86 1.247 3.092 1.266.82-.003 1.611-.19 2.173-.562.562-.373.976-.919 1.244-1.637.087-.238.153-.51.198-.818.045-.307.075-.717.09-1.23m-5.643.483h3.54c-.014.514-.042.927-.082 1.24-.04.314-.104.595-.19.841-.3.875-.759 1.308-1.378 1.3-.694-.006-1.212-.495-1.554-1.466a5.407 5.407 0 0 1-.21-.826c-.053-.3-.095-.663-.126-1.089"/>
                <path fill="#3A3A3A" fill-rule="nonzero" d="M18.843 10.862l3.139.218c.016-.314.029-.578.037-.791.008-.214.013-.403.013-.566V9.22c.681 1.251 1.505 1.883 2.47 1.894.418-.008.757-.13 1.017-.367.26-.236.395-.539.403-.907a.94.94 0 0 0-.339-.737c-.219-.185-.506-.28-.863-.285-.43-.013-.69.165-.785.536-.062.23-.126.386-.192.47-.066.083-.164.122-.292.117h-.034c-.328-.028-.64-.29-.934-.788a3.198 3.198 0 0 1-.301-.823c-.067-.3-.1-.646-.1-1.036v-3.1c-.007-.495.017-.86.071-1.094.054-.234.177-.388.37-.46.19-.072.49-.113.894-.121v-.403h-4.64v.403c.377-.002.657.035.84.11.182.075.3.232.355.471.054.24.078.604.073 1.094v4.641c.015.691-.053 1.14-.207 1.347-.153.207-.485.3-.995.278v.402zM29.65 11.08l.017-1.66c.676 1.118 1.644 1.682 2.905 1.693 1.283.008 2.073-.578 2.37-1.76.364.61.778 1.055 1.242 1.34.466.283 1.009.423 1.63.42.983-.006 1.706-.33 2.171-.971.182-.244.31-.541.388-.893.077-.352.115-.808.113-1.37V4.195c-.006-.49.018-.854.073-1.093.054-.24.172-.397.355-.472.182-.075.462-.112.841-.11v-.403H37.23v.403c.362-.002.63.035.806.11.175.075.289.232.342.472.053.239.076.603.071 1.093v3.67c.004.88-.104 1.514-.323 1.905-.22.39-.574.581-1.063.573-.587.012-1.082-.295-1.486-.921a2.969 2.969 0 0 1-.517-1.692V4.194c-.006-.49.018-.854.071-1.093.053-.24.17-.397.347-.472.178-.075.45-.112.817-.11v-.403h-4.474v.403c.362-.002.63.035.805.11.175.075.29.232.343.472.052.239.076.603.07 1.093V7.88c.009 1.658-.442 2.48-1.352 2.462-.566-.02-1.04-.29-1.423-.808-.383-.519-.581-1.165-.597-1.94v-3.4c-.005-.495.019-.862.072-1.1.052-.24.166-.396.341-.469.176-.073.444-.109.806-.106v-.403H26.36v.403c.379-.003.659.033.841.106.182.073.301.23.355.468.054.239.079.606.073 1.101v4.657c.017.682-.05 1.124-.204 1.326-.154.202-.497.296-1.031.283v.402l3.255.218zM53.625 10.313V4.717c0-.364.013-.666.04-.904.027-.239.069-.44.127-.603a.977.977 0 0 1 .328-.449.814.814 0 0 1 .49-.171c.356.005.746.178 1.169.52l.233-.42a3.421 3.421 0 0 0-2.287-.838c-.921.015-1.55.322-1.886.922a1.934 1.934 0 0 0-.155.454c-.036.17-.061.4-.075.689-.015.289-.022.68-.021 1.169v5.227h-.952v.502c.364.014.672.091.925.231s.473.359.662.658c.147.227.27.48.365.758.095.278.18.622.252 1.034l.835.084a34.892 34.892 0 0 1-.044-1.498c-.004-.32-.006-.732-.006-1.233h2.02v-.536h-2.02z"/>
                <path fill="#3A3A3A" d="M50.628 2.471v-.354c-.489-.032-.686-.032-1.2-.032-.407-.001-.829.006-1.179.138a1.136 1.136 0 0 0-.499.323c-.112.179-.184.188-.22.688-.431-.466-.88-.81-1.346-1.03a3.465 3.465 0 0 0-1.51-.327c-.8.01-1.427.231-1.88.667-.452.435-.682 1.034-.69 1.797-.004 1.438.888 2.331 2.671 2.68a20.26 20.26 0 0 0 2.738.318v1.09c.009.872-.084 1.477-.275 1.813-.192.336-.535.497-1.028.481-.522.011-.895-.178-1.118-.57a1.497 1.497 0 0 1-.177-.462 5.617 5.617 0 0 1-.09-.727c-.013-.298-.1-.51-.259-.636-.16-.126-.413-.188-.76-.185-.773.006-1.163.263-1.168.771.002.296.094.58.274.848.18.27.433.506.761.71.696.43 1.608.642 2.738.637 1.15.005 1.973-.223 2.471-.687.224-.212.39-.483.494-.813.106-.329.158-.75.157-1.265l-.017-1.457L49.5 5.43c-.014-.478-.02-.78-.017-.905-.006-.604.013-1.046.057-1.324.043-.278.092-.4.274-.552.319-.183.592-.177.814-.178m-3.115 3.193v1.29c-1.195-.082-2.043-.304-2.544-.666-.5-.362-.743-.928-.729-1.697.006-.602.13-1.08.37-1.434.241-.353.569-.534.983-.542.34.003.653.101.941.295.288.193.514.464.678.81.108.213.185.471.232.778.047.306.07.694.069 1.166M65.003 2.471v-.354a14.744 14.744 0 0 0-1.2-.034c-.407 0-.829.007-1.179.14a1.136 1.136 0 0 0-.498.321c-.113.18-.185.19-.222.69-.43-.468-.879-.811-1.345-1.03a3.46 3.46 0 0 0-1.51-.328c-.8.01-1.427.231-1.88.667-.452.435-.682 1.034-.69 1.796-.003 1.438.887 2.332 2.671 2.68a20.26 20.26 0 0 0 2.738.319v1.09c.009.872-.084 1.477-.275 1.812-.193.337-.535.497-1.027.482-.523.011-.896-.178-1.119-.57a1.483 1.483 0 0 1-.177-.462 5.617 5.617 0 0 1-.09-.727c-.013-.298-.1-.51-.258-.637-.16-.126-.413-.187-.76-.184-.774.006-1.163.263-1.17.77.004.297.095.58.275.85.18.268.433.505.761.71.696.429 1.608.64 2.738.636 1.15.005 1.973-.224 2.471-.688.225-.211.39-.482.495-.812.105-.33.157-.75.157-1.265l-.017-1.457-.017-1.458c-.014-.477-.02-.779-.017-.904-.006-.604.014-1.046.057-1.324.044-.278.092-.4.274-.552.319-.183.592-.176.814-.177m-3.115 3.192v1.29c-1.195-.082-2.044-.304-2.544-.666-.5-.363-.743-.928-.728-1.697.005-.602.128-1.08.37-1.434.24-.354.568-.534.982-.543.34.004.654.102.941.296.288.194.514.464.678.81.108.212.185.471.232.777.047.306.07.695.069 1.167"/>
                <path fill="#0097B9" fill-rule="nonzero" d="M99.381 23.076l-.033-.645 12.337-14.523.443-.072.056.027.216.403-5.26 17.672-.894.604z"/>
            </g>
        </g>
        <g transform="matrix(1 0 0 -1 98.023 26.313)">
            <mask id="d" fill="#fff">
                <use xlink:href="#c"/>
            </mask>
            <g mask="url(#d)">
                <path fill="#005874" d="M4.206 14.052L13.33.123l-.486.08L.491 14.763z"/>
                <path fill="#2FB8E7" fill-rule="nonzero" d="M7.436 18.884l.89-.607-2.764-3.688-1.284.563z"/>
                <path fill="#007592" fill-rule="nonzero" d="M4.278 15.153l-.072-1.102-3.714.712.039.64zM5.561 14.589l2.77 3.694L13.66.596 13.388.14z"/>
            </g>
        </g>
        <g transform="matrix(1 0 0 -1 -.8 33.987)">
            <mask id="f" fill="#fff">
                <use xlink:href="#e"/>
            </mask>
            <g mask="url(#f)">
                <path fill="#80B13A" fill-rule="nonzero" d="M119.18 26.892l7.976-3.68.015-1.039L114.08 2.274l-.598-.158-.088.04-.186.45 5.276 23.898z"/>
            </g>
        </g>
        <g transform="matrix(1 0 0 -1 112.14 32.216)">
            <mask id="h" fill="#fff">
                <use xlink:href="#g"/>
            </mask>
            <g mask="url(#h)">
                <path fill="#6E9123" fill-rule="nonzero" d="M14.257 20.405L1.177.463.508.267l8.408 19.681z"/>
                <path fill="#3F7937" fill-rule="nonzero" d="M7.41 20.78L.432.329.236.83l5.297 23.922z"/>
                <path fill="#A5C550" fill-rule="nonzero" d="M14.236 21.44l.022-1.035-5.342-.457-.301 1.42z"/>
                <path fill="#5D8B27" fill-rule="nonzero" d="M8.615 21.368l-1.206-.587-1.877 3.974.69.39z"/>
            </g>
        </g>
        <g transform="matrix(1 0 0 -1 -.8 33.987)">
            <mask id="j" fill="#fff">
                <use xlink:href="#i"/>
            </mask>
            <g mask="url(#j)">
                <path fill="#D81936" fill-rule="nonzero" d="M106.994 32.554l.318.613 10.213.111.66-.687-4.893-16.405-.31-.18h-.01l-.336.227z"/>
            </g>
        </g>
        <g transform="matrix(1 0 0 -1 105.67 18.05)">
            <mask id="l" fill="#fff">
                <use xlink:href="#k"/>
            </mask>
            <g mask="url(#l)">
                <path fill="#AF2C35" fill-rule="nonzero" d="M5.216 15.513l-.736-.873-3.99 1.995.321.607z"/>
                <path fill="#762624" fill-rule="nonzero" d="M.488 16.635L4.48 14.64 6.504.035 6.15.277z"/>
                <path fill="#B22B37" fill-rule="nonzero" d="M6.4 14.638l5.332 2.022L6.846.226l-.335-.19z"/>
                <path fill="#DC505E" fill-rule="nonzero" d="M5.217 15.513l1.183-.875 5.333 2.022-.668.684z"/>
            </g>
        </g>
    </g>
</svg>
